<svg xmlns="http://www.w3.org/2000/svg" class="graphdiagram" viewBox="-3968.2957892500144 -1957.6406688722805 3563.951818812894 2031.9475300315182"><g class="layer relationships"><g class="related-pair"><g class="relationship" transform="translate(-2125.69892578125,-934.2052469624156) rotate(14.958994086661475)"><path class="relationship" d="M 212.91540341098502 4 L 528.2026102603531 4 L 528.2026102603531 16 L 560.2026102603531 0 L 528.2026102603531 -16 L 528.2026102603531 -4 L 212.91540341098502 -4 Z" fill="rgb(0, 0, 0)" stroke="rgb(51, 51, 51)" stroke-width="0px"/></g></g><g class="related-pair"><g class="relationship" transform="translate(-2125.69892578125,-934.2052469624156) rotate(51.13858892111502)"><path class="relationship" d="M 212.91540341098502 4 L 568.6188631314354 4 L 568.6188631314354 16 L 600.6188631314354 0 L 568.6188631314354 -16 L 568.6188631314354 -4 L 212.91540341098502 -4 Z" fill="rgb(0, 0, 0)" stroke="rgb(51, 51, 51)" stroke-width="0px"/></g></g><g class="related-pair"><g class="relationship" transform="translate(-2125.69892578125,-934.2052469624156) rotate(-164.13283246683716)"><path class="relationship" d="M 212.91540341098502 4 L 624.5592728303468 4 L 624.5592728303468 16 L 656.5592728303468 0 L 624.5592728303468 -16 L 624.5592728303468 -4 L 212.91540341098502 -4 Z" fill="rgb(0, 0, 0)" stroke="rgb(51, 51, 51)" stroke-width="0px"/></g></g><g class="related-pair"><g class="relationship" transform="translate(-2125.69892578125,-934.2052469624156) rotate(163.98377732295714)"><path class="relationship" d="M 212.91540341098502 4 L 594.1979915942038 4 L 594.1979915942038 16 L 626.1979915942038 0 L 594.1979915942038 -16 L 594.1979915942038 -4 L 212.91540341098502 -4 Z" fill="rgb(0, 0, 0)" stroke="rgb(51, 51, 51)" stroke-width="0px"/></g></g><g class="related-pair"><g class="relationship" transform="translate(-2125.69892578125,-934.2052469624156) rotate(90)"><path class="relationship" d="M 212.91540341098502 4 L 489.22504405484483 4 L 489.22504405484483 16 L 521.2250440548448 0 L 489.22504405484483 -16 L 489.22504405484483 -4 L 212.91540341098502 -4 Z" fill="rgb(0, 0, 0)" stroke="rgb(51, 51, 51)" stroke-width="0px"/></g></g><g class="related-pair"><g class="relationship" transform="translate(-2125.69892578125,-934.2052469624156) rotate(-18.759051984289094)"><path class="relationship" d="M 212.91540341098502 4 L 599.7973841880804 4 L 599.7973841880804 16 L 631.7973841880804 0 L 599.7973841880804 -16 L 599.7973841880804 -4 L 212.91540341098502 -4 Z" fill="rgb(0, 0, 0)" stroke="rgb(51, 51, 51)" stroke-width="0px"/></g></g><g class="related-pair"><g class="relationship" transform="translate(-2125.69892578125,-934.2052469624156) rotate(-129.45230243798642)"><path class="relationship" d="M 212.91540341098502 4 L 512.8956706440588 4 L 512.8956706440588 16 L 544.8956706440588 0 L 512.8956706440588 -16 L 512.8956706440588 -4 L 212.91540341098502 -4 Z" fill="rgb(0, 0, 0)" stroke="rgb(51, 51, 51)" stroke-width="0px"/></g></g><g class="related-pair"><g class="relationship" transform="translate(-2125.69892578125,-934.2052469624156) rotate(-90)"><path class="relationship" d="M 212.91540341098502 4 L 504.41367889186495 4 L 504.41367889186495 16 L 536.413678891865 0 L 504.41367889186495 -16 L 504.41367889186495 -4 L 212.91540341098502 -4 Z" fill="rgb(0, 0, 0)" stroke="rgb(51, 51, 51)" stroke-width="0px"/></g></g><g class="related-pair"><g class="relationship" transform="translate(-2125.69892578125,-934.2052469624156) rotate(-52.17423910049978)"><path class="relationship" d="M 212.91540341098502 4 L 506.89156610148007 4 L 506.89156610148007 16 L 538.8915661014801 0 L 506.89156610148007 -16 L 506.89156610148007 -4 L 212.91540341098502 -4 Z" fill="rgb(0, 0, 0)" stroke="rgb(51, 51, 51)" stroke-width="0px"/></g></g><g class="related-pair"><g class="relationship" transform="translate(-2125.69892578125,-934.2052469624156) rotate(130.36465934624567)"><path class="relationship" d="M 212.91540341098502 4 L 543.311878784971 4 L 543.311878784971 16 L 575.311878784971 0 L 543.311878784971 -16 L 543.311878784971 -4 L 212.91540341098502 -4 Z" fill="rgb(0, 0, 0)" stroke="rgb(51, 51, 51)" stroke-width="0px"/></g></g></g><g class="layer nodes"><circle class="node node-id-0" r="197.91540341098502" fill="rgb(255, 255, 255)" stroke="rgb(0, 0, 0)" stroke-width="8px" cx="-2125.69892578125" cy="-934.2052469624156"/><circle class="node node-id-1" r="202.6888142322906" fill="rgb(255, 255, 255)" stroke="rgb(0, 0, 0)" stroke-width="8px" cx="-1374.1696095254463" cy="-733.4099404752417"/><circle class="node node-id-2" r="175.80339887498948" fill="rgb(255, 255, 255)" stroke="rgb(0, 0, 0)" stroke-width="8px" cx="-1629.1299186374836" cy="-317.95171314405263"/><circle class="node node-id-3" r="175.80339887498948" fill="rgb(255, 255, 255)" stroke="rgb(0, 0, 0)" stroke-width="8px" cx="-2940.775503398507" cy="-1165.881033395408"/><circle class="node node-id-4" r="206.7945938079714" fill="rgb(255, 255, 255)" stroke="rgb(0, 0, 0)" stroke-width="8px" cx="-2940.775503398507" cy="-700.2360235230813"/><circle class="node node-id-5" r="190.39353203340409" fill="rgb(255, 255, 255)" stroke="rgb(0, 0, 0)" stroke-width="8px" cx="-2125.69892578125" cy="-207.58667087416663"/><circle class="node node-id-6" r="196.56479746142216" fill="rgb(255, 255, 255)" stroke="rgb(0, 0, 0)" stroke-width="8px" cx="-1327.136704526161" cy="-1205.4213014664706"/><g class="caption"><text class="caption node" text-anchor="middle" alignment-baseline="central" x="-2125.69892578125" y="-984.2052469624156" fill="rgb(51, 51, 51)" font-size="50px" font-family="&quot;Gill Sans&quot;, &quot;Gill Sans MT&quot;, Calibri, sans-serif">WINDOWS</text><text class="caption node" text-anchor="middle" alignment-baseline="central" x="-2125.69892578125" y="-934.2052469624156" fill="rgb(51, 51, 51)" font-size="50px" font-family="&quot;Gill Sans&quot;, &quot;Gill Sans MT&quot;, Calibri, sans-serif">SECURITY</text><text class="caption node" text-anchor="middle" alignment-baseline="central" x="-2125.69892578125" y="-884.2052469624156" fill="rgb(51, 51, 51)" font-size="50px" font-family="&quot;Gill Sans&quot;, &quot;Gill Sans MT&quot;, Calibri, sans-serif">EVENTS</text></g><g class="caption"><text class="caption node" text-anchor="middle" alignment-baseline="central" x="-1374.1696095254463" y="-808.4099404752417" fill="rgb(51, 51, 51)" font-size="50px" font-family="&quot;Gill Sans&quot;, &quot;Gill Sans MT&quot;, Calibri, sans-serif">4624</text><text class="caption node" text-anchor="middle" alignment-baseline="central" x="-1374.1696095254463" y="-758.4099404752417" fill="rgb(51, 51, 51)" font-size="50px" font-family="&quot;Gill Sans&quot;, &quot;Gill Sans MT&quot;, Calibri, sans-serif">An account</text><text class="caption node" text-anchor="middle" alignment-baseline="central" x="-1374.1696095254463" y="-708.4099404752417" fill="rgb(51, 51, 51)" font-size="50px" font-family="&quot;Gill Sans&quot;, &quot;Gill Sans MT&quot;, Calibri, sans-serif">was successfully</text><text class="caption node" text-anchor="middle" alignment-baseline="central" x="-1374.1696095254463" y="-658.4099404752417" fill="rgb(51, 51, 51)" font-size="50px" font-family="&quot;Gill Sans&quot;, &quot;Gill Sans MT&quot;, Calibri, sans-serif">logged on</text></g><g class="caption"><text class="caption node" text-anchor="middle" alignment-baseline="central" x="-1629.1299186374836" y="-392.95171314405263" fill="rgb(51, 51, 51)" font-size="50px" font-family="&quot;Gill Sans&quot;, &quot;Gill Sans MT&quot;, Calibri, sans-serif">4625</text><text class="caption node" text-anchor="middle" alignment-baseline="central" x="-1629.1299186374836" y="-342.95171314405263" fill="rgb(51, 51, 51)" font-size="50px" font-family="&quot;Gill Sans&quot;, &quot;Gill Sans MT&quot;, Calibri, sans-serif">An account</text><text class="caption node" text-anchor="middle" alignment-baseline="central" x="-1629.1299186374836" y="-292.95171314405263" fill="rgb(51, 51, 51)" font-size="50px" font-family="&quot;Gill Sans&quot;, &quot;Gill Sans MT&quot;, Calibri, sans-serif">failed to log</text><text class="caption node" text-anchor="middle" alignment-baseline="central" x="-1629.1299186374836" y="-242.95171314405263" fill="rgb(51, 51, 51)" font-size="50px" font-family="&quot;Gill Sans&quot;, &quot;Gill Sans MT&quot;, Calibri, sans-serif">on</text></g><g class="caption"><text class="caption node" text-anchor="middle" alignment-baseline="central" x="-2940.775503398507" y="-1240.881033395408" fill="rgb(51, 51, 51)" font-size="50px" font-family="&quot;Gill Sans&quot;, &quot;Gill Sans MT&quot;, Calibri, sans-serif">4657</text><text class="caption node" text-anchor="middle" alignment-baseline="central" x="-2940.775503398507" y="-1190.881033395408" fill="rgb(51, 51, 51)" font-size="50px" font-family="&quot;Gill Sans&quot;, &quot;Gill Sans MT&quot;, Calibri, sans-serif">A registry</text><text class="caption node" text-anchor="middle" alignment-baseline="central" x="-2940.775503398507" y="-1140.881033395408" fill="rgb(51, 51, 51)" font-size="50px" font-family="&quot;Gill Sans&quot;, &quot;Gill Sans MT&quot;, Calibri, sans-serif">value was</text><text class="caption node" text-anchor="middle" alignment-baseline="central" x="-2940.775503398507" y="-1090.881033395408" fill="rgb(51, 51, 51)" font-size="50px" font-family="&quot;Gill Sans&quot;, &quot;Gill Sans MT&quot;, Calibri, sans-serif">modified.</text></g><g class="caption"><text class="caption node" text-anchor="middle" alignment-baseline="central" x="-2940.775503398507" y="-750.2360235230813" fill="rgb(51, 51, 51)" font-size="50px" font-family="&quot;Gill Sans&quot;, &quot;Gill Sans MT&quot;, Calibri, sans-serif">4688</text><text class="caption node" text-anchor="middle" alignment-baseline="central" x="-2940.775503398507" y="-700.2360235230813" fill="rgb(51, 51, 51)" font-size="50px" font-family="&quot;Gill Sans&quot;, &quot;Gill Sans MT&quot;, Calibri, sans-serif">A new process</text><text class="caption node" text-anchor="middle" alignment-baseline="central" x="-2940.775503398507" y="-650.2360235230813" fill="rgb(51, 51, 51)" font-size="50px" font-family="&quot;Gill Sans&quot;, &quot;Gill Sans MT&quot;, Calibri, sans-serif">has been created</text></g><g class="caption"><text class="caption node" text-anchor="middle" alignment-baseline="central" x="-2125.69892578125" y="-282.58667087416666" fill="rgb(51, 51, 51)" font-size="50px" font-family="&quot;Gill Sans&quot;, &quot;Gill Sans MT&quot;, Calibri, sans-serif">5140</text><text class="caption node" text-anchor="middle" alignment-baseline="central" x="-2125.69892578125" y="-232.58667087416663" fill="rgb(51, 51, 51)" font-size="50px" font-family="&quot;Gill Sans&quot;, &quot;Gill Sans MT&quot;, Calibri, sans-serif">A network</text><text class="caption node" text-anchor="middle" alignment-baseline="central" x="-2125.69892578125" y="-182.58667087416663" fill="rgb(51, 51, 51)" font-size="50px" font-family="&quot;Gill Sans&quot;, &quot;Gill Sans MT&quot;, Calibri, sans-serif">share object</text><text class="caption node" text-anchor="middle" alignment-baseline="central" x="-2125.69892578125" y="-132.58667087416663" fill="rgb(51, 51, 51)" font-size="50px" font-family="&quot;Gill Sans&quot;, &quot;Gill Sans MT&quot;, Calibri, sans-serif">was accessed.</text></g><g class="caption"><text class="caption node" text-anchor="middle" alignment-baseline="central" x="-1327.136704526161" y="-1280.4213014664706" fill="rgb(51, 51, 51)" font-size="50px" font-family="&quot;Gill Sans&quot;, &quot;Gill Sans MT&quot;, Calibri, sans-serif">4656</text><text class="caption node" text-anchor="middle" alignment-baseline="central" x="-1327.136704526161" y="-1230.4213014664706" fill="rgb(51, 51, 51)" font-size="50px" font-family="&quot;Gill Sans&quot;, &quot;Gill Sans MT&quot;, Calibri, sans-serif">A handle</text><text class="caption node" text-anchor="middle" alignment-baseline="central" x="-1327.136704526161" y="-1180.4213014664706" fill="rgb(51, 51, 51)" font-size="50px" font-family="&quot;Gill Sans&quot;, &quot;Gill Sans MT&quot;, Calibri, sans-serif">to an object</text><text class="caption node" text-anchor="middle" alignment-baseline="central" x="-1327.136704526161" y="-1130.4213014664706" fill="rgb(51, 51, 51)" font-size="50px" font-family="&quot;Gill Sans&quot;, &quot;Gill Sans MT&quot;, Calibri, sans-serif">was requested</text></g><circle class="node node-id-17" r="186.5501344330481" fill="rgb(255, 255, 255)" stroke="rgb(0, 0, 0)" stroke-width="8px" cx="-2600.01719238281" cy="-1510.576240234372"/><g class="caption"><text class="caption node" text-anchor="middle" alignment-baseline="central" x="-2600.01719238281" y="-1585.576240234372" fill="rgb(51, 51, 51)" font-size="50px" font-family="&quot;Gill Sans&quot;, &quot;Gill Sans MT&quot;, Calibri, sans-serif">4697</text><text class="caption node" text-anchor="middle" alignment-baseline="central" x="-2600.01719238281" y="-1535.576240234372" fill="rgb(51, 51, 51)" font-size="50px" font-family="&quot;Gill Sans&quot;, &quot;Gill Sans MT&quot;, Calibri, sans-serif">A service</text><text class="caption node" text-anchor="middle" alignment-baseline="central" x="-2600.01719238281" y="-1485.576240234372" fill="rgb(51, 51, 51)" font-size="50px" font-family="&quot;Gill Sans&quot;, &quot;Gill Sans MT&quot;, Calibri, sans-serif">was installed</text><text class="caption node" text-anchor="middle" alignment-baseline="central" x="-2600.01719238281" y="-1435.576240234372" fill="rgb(51, 51, 51)" font-size="50px" font-family="&quot;Gill Sans&quot;, &quot;Gill Sans MT&quot;, Calibri, sans-serif">in the system</text></g><circle class="node node-id-18" r="190.26087150899997" fill="rgb(255, 255, 255)" stroke="rgb(0, 0, 0)" stroke-width="8px" cx="-2125.69892578125" cy="-1675.8797973632804"/><g class="caption"><text class="caption node" text-anchor="middle" alignment-baseline="central" x="-2125.69892578125" y="-1725.8797973632804" fill="rgb(51, 51, 51)" font-size="50px" font-family="&quot;Gill Sans&quot;, &quot;Gill Sans MT&quot;, Calibri, sans-serif">4720</text><text class="caption node" text-anchor="middle" alignment-baseline="central" x="-2125.69892578125" y="-1675.8797973632804" fill="rgb(51, 51, 51)" font-size="50px" font-family="&quot;Gill Sans&quot;, &quot;Gill Sans MT&quot;, Calibri, sans-serif">A user account</text><text class="caption node" text-anchor="middle" alignment-baseline="central" x="-2125.69892578125" y="-1625.8797973632804" fill="rgb(51, 51, 51)" font-size="50px" font-family="&quot;Gill Sans&quot;, &quot;Gill Sans MT&quot;, Calibri, sans-serif">was created</text></g><circle class="node node-id-19" r="175.80339887498948" fill="rgb(255, 255, 255)" stroke="rgb(0, 0, 0)" stroke-width="8px" cx="-1678.2045458984303" cy="-1510.576240234372"/><g class="caption"><text class="caption node" text-anchor="middle" alignment-baseline="central" x="-1678.2045458984303" y="-1585.576240234372" fill="rgb(51, 51, 51)" font-size="50px" font-family="&quot;Gill Sans&quot;, &quot;Gill Sans MT&quot;, Calibri, sans-serif">4726</text><text class="caption node" text-anchor="middle" alignment-baseline="central" x="-1678.2045458984303" y="-1535.576240234372" fill="rgb(51, 51, 51)" font-size="50px" font-family="&quot;Gill Sans&quot;, &quot;Gill Sans MT&quot;, Calibri, sans-serif">A user</text><text class="caption node" text-anchor="middle" alignment-baseline="central" x="-1678.2045458984303" y="-1485.576240234372" fill="rgb(51, 51, 51)" font-size="50px" font-family="&quot;Gill Sans&quot;, &quot;Gill Sans MT&quot;, Calibri, sans-serif">account was</text><text class="caption node" text-anchor="middle" alignment-baseline="central" x="-1678.2045458984303" y="-1435.576240234372" fill="rgb(51, 51, 51)" font-size="50px" font-family="&quot;Gill Sans&quot;, &quot;Gill Sans MT&quot;, Calibri, sans-serif">deleted</text></g><circle class="node node-id-20" r="218.48567488841007" fill="rgb(255, 255, 255)" stroke="rgb(0, 0, 0)" stroke-width="8px" cx="-2649.5167041015607" cy="-317.95171314405263"/><g class="caption"><text class="caption node" text-anchor="middle" alignment-baseline="central" x="-2649.5167041015607" y="-417.95171314405263" fill="rgb(51, 51, 51)" font-size="50px" font-family="&quot;Gill Sans&quot;, &quot;Gill Sans MT&quot;, Calibri, sans-serif">4674</text><text class="caption node" text-anchor="middle" alignment-baseline="central" x="-2649.5167041015607" y="-367.95171314405263" fill="rgb(51, 51, 51)" font-size="50px" font-family="&quot;Gill Sans&quot;, &quot;Gill Sans MT&quot;, Calibri, sans-serif">An operation</text><text class="caption node" text-anchor="middle" alignment-baseline="central" x="-2649.5167041015607" y="-317.95171314405263" fill="rgb(51, 51, 51)" font-size="50px" font-family="&quot;Gill Sans&quot;, &quot;Gill Sans MT&quot;, Calibri, sans-serif">was attempted</text><text class="caption node" text-anchor="middle" alignment-baseline="central" x="-2649.5167041015607" y="-267.95171314405263" fill="rgb(51, 51, 51)" font-size="50px" font-family="&quot;Gill Sans&quot;, &quot;Gill Sans MT&quot;, Calibri, sans-serif">on a privileged</text><text class="caption node" text-anchor="middle" alignment-baseline="central" x="-2649.5167041015607" y="-217.95171314405263" fill="rgb(51, 51, 51)" font-size="50px" font-family="&quot;Gill Sans&quot;, &quot;Gill Sans MT&quot;, Calibri, sans-serif">object</text></g></g><g class="layer properties"><g class="speech-bubble node-speech-bubble" transform="translate(-1171.4807952931556,-733.4099404752417) "><path class="speech-bubble-outline" transform="scale(1,1) " d="M 0 0 L 20 -10 L 20 -50 A 10 10 0 0 1 30 -60 L 647.4560546875 -60 A 10 10 0 0 1 657.4560546875 -50 L 657.4560546875 50 A 10 10 0 0 1 647.4560546875 60 L 30 60 A 10 10 0 0 1 20 50 L 20 10 Z" fill="rgb(255, 255, 255)" stroke="rgb(0, 0, 0)" stroke-width="3px"/><text class="speech-bubble-content property-key" x="167.353515625" y="-25" alignment-baseline="central" text-anchor="end" font-size="50px" font-family="&quot;Gill Sans&quot;, &quot;Gill Sans MT&quot;, Calibri, sans-serif" xml:space="preserve">API-1: </text><text class="speech-bubble-content property-value" x="167.353515625" y="-25" alignment-baseline="central" font-size="50px" font-family="&quot;Gill Sans&quot;, &quot;Gill Sans MT&quot;, Calibri, sans-serif">LogonUser</text><text class="speech-bubble-content property-key" x="167.353515625" y="25" alignment-baseline="central" text-anchor="end" font-size="50px" font-family="&quot;Gill Sans&quot;, &quot;Gill Sans MT&quot;, Calibri, sans-serif" xml:space="preserve">API-2: </text><text class="speech-bubble-content property-value" x="167.353515625" y="25" alignment-baseline="central" font-size="50px" font-family="&quot;Gill Sans&quot;, &quot;Gill Sans MT&quot;, Calibri, sans-serif">WNetAddConnection2</text></g><g class="speech-bubble node-speech-bubble" transform="translate(-1504.818143137335,-193.6399376439041) "><path class="speech-bubble-outline" transform="scale(1,1) " d="M 0 0 L 30 20 L 647.4560546875 20 A 10 10 0 0 1 657.4560546875 30 L 657.4560546875 130 A 10 10 0 0 1 647.4560546875 140 L 30 140 A 10 10 0 0 1 20 130 L 20 30 Z" fill="rgb(255, 255, 255)" stroke="rgb(0, 0, 0)" stroke-width="3px"/><text class="speech-bubble-content property-key" x="167.353515625" y="55" alignment-baseline="central" text-anchor="end" font-size="50px" font-family="&quot;Gill Sans&quot;, &quot;Gill Sans MT&quot;, Calibri, sans-serif" xml:space="preserve">API-1: </text><text class="speech-bubble-content property-value" x="167.353515625" y="55" alignment-baseline="central" font-size="50px" font-family="&quot;Gill Sans&quot;, &quot;Gill Sans MT&quot;, Calibri, sans-serif">LogonUser</text><text class="speech-bubble-content property-key" x="167.353515625" y="105" alignment-baseline="central" text-anchor="end" font-size="50px" font-family="&quot;Gill Sans&quot;, &quot;Gill Sans MT&quot;, Calibri, sans-serif" xml:space="preserve">API-2: </text><text class="speech-bubble-content property-value" x="167.353515625" y="105" alignment-baseline="central" font-size="50px" font-family="&quot;Gill Sans&quot;, &quot;Gill Sans MT&quot;, Calibri, sans-serif">WNetAddConnection2</text></g><g class="speech-bubble node-speech-bubble" transform="translate(-3116.5789022734966,-1165.881033395408) "><path class="speech-bubble-outline" transform="scale(-1,1) " d="M 0 0 L 20 -10 L 20 -100 A 10 10 0 0 1 30 -110 L 496.4306640625 -110 A 10 10 0 0 1 506.4306640625 -100 L 506.4306640625 100 A 10 10 0 0 1 496.4306640625 110 L 30 110 A 10 10 0 0 1 20 100 L 20 10 Z" fill="rgb(255, 255, 255)" stroke="rgb(0, 0, 0)" stroke-width="3px"/><text class="speech-bubble-content property-key" x="-359.0771484375" y="-75" alignment-baseline="central" text-anchor="end" font-size="50px" font-family="&quot;Gill Sans&quot;, &quot;Gill Sans MT&quot;, Calibri, sans-serif" xml:space="preserve">API-1: </text><text class="speech-bubble-content property-value" x="-359.0771484375" y="-75" alignment-baseline="central" font-size="50px" font-family="&quot;Gill Sans&quot;, &quot;Gill Sans MT&quot;, Calibri, sans-serif">RegSetKeyValue</text><text class="speech-bubble-content property-key" x="-359.0771484375" y="-25" alignment-baseline="central" text-anchor="end" font-size="50px" font-family="&quot;Gill Sans&quot;, &quot;Gill Sans MT&quot;, Calibri, sans-serif" xml:space="preserve">API-2: </text><text class="speech-bubble-content property-value" x="-359.0771484375" y="-25" alignment-baseline="central" font-size="50px" font-family="&quot;Gill Sans&quot;, &quot;Gill Sans MT&quot;, Calibri, sans-serif">RegSetValue</text><text class="speech-bubble-content property-key" x="-359.0771484375" y="25" alignment-baseline="central" text-anchor="end" font-size="50px" font-family="&quot;Gill Sans&quot;, &quot;Gill Sans MT&quot;, Calibri, sans-serif" xml:space="preserve">API-3: </text><text class="speech-bubble-content property-value" x="-359.0771484375" y="25" alignment-baseline="central" font-size="50px" font-family="&quot;Gill Sans&quot;, &quot;Gill Sans MT&quot;, Calibri, sans-serif">RegSetValueEx</text><text class="speech-bubble-content property-key" x="-359.0771484375" y="75" alignment-baseline="central" text-anchor="end" font-size="50px" font-family="&quot;Gill Sans&quot;, &quot;Gill Sans MT&quot;, Calibri, sans-serif" xml:space="preserve">API-4: </text><text class="speech-bubble-content property-value" x="-359.0771484375" y="75" alignment-baseline="central" font-size="50px" font-family="&quot;Gill Sans&quot;, &quot;Gill Sans MT&quot;, Calibri, sans-serif">ZwSetValueKey</text></g><g class="speech-bubble node-speech-bubble" transform="translate(-3147.5700972064787,-700.2360235230813) "><path class="speech-bubble-outline" transform="scale(-1,1) " d="M 0 0 L 20 -10 L 20 -100 A 10 10 0 0 1 30 -110 L 701.044921875 -110 A 10 10 0 0 1 711.044921875 -100 L 711.044921875 100 A 10 10 0 0 1 701.044921875 110 L 30 110 A 10 10 0 0 1 20 100 L 20 10 Z" fill="rgb(255, 255, 255)" stroke="rgb(0, 0, 0)" stroke-width="3px"/><text class="speech-bubble-content property-key" x="-563.69140625" y="-75" alignment-baseline="central" text-anchor="end" font-size="50px" font-family="&quot;Gill Sans&quot;, &quot;Gill Sans MT&quot;, Calibri, sans-serif" xml:space="preserve">API-1: </text><text class="speech-bubble-content property-value" x="-563.69140625" y="-75" alignment-baseline="central" font-size="50px" font-family="&quot;Gill Sans&quot;, &quot;Gill Sans MT&quot;, Calibri, sans-serif">CreateProcess</text><text class="speech-bubble-content property-key" x="-563.69140625" y="-25" alignment-baseline="central" text-anchor="end" font-size="50px" font-family="&quot;Gill Sans&quot;, &quot;Gill Sans MT&quot;, Calibri, sans-serif" xml:space="preserve">API-2: </text><text class="speech-bubble-content property-key" x="-563.69140625" y="25" alignment-baseline="central" text-anchor="end" font-size="50px" font-family="&quot;Gill Sans&quot;, &quot;Gill Sans MT&quot;, Calibri, sans-serif" xml:space="preserve">API-3: </text><text class="speech-bubble-content property-key" x="-563.69140625" y="75" alignment-baseline="central" text-anchor="end" font-size="50px" font-family="&quot;Gill Sans&quot;, &quot;Gill Sans MT&quot;, Calibri, sans-serif" xml:space="preserve">API-4: </text><text class="speech-bubble-content property-value" x="-563.69140625" y="-25" alignment-baseline="central" font-size="50px" font-family="&quot;Gill Sans&quot;, &quot;Gill Sans MT&quot;, Calibri, sans-serif">CreateProcessAsUser</text><text class="speech-bubble-content property-value" x="-563.69140625" y="25" alignment-baseline="central" font-size="50px" font-family="&quot;Gill Sans&quot;, &quot;Gill Sans MT&quot;, Calibri, sans-serif">CreateProcessWithLogon</text><text class="speech-bubble-content property-value" x="-563.69140625" y="75" alignment-baseline="central" font-size="50px" font-family="&quot;Gill Sans&quot;, &quot;Gill Sans MT&quot;, Calibri, sans-serif">CreateProcessWithToken</text></g><g class="speech-bubble node-speech-bubble" transform="translate(-2125.69892578125,-17.193138840762543) "><path class="speech-bubble-outline" transform="scale(1,1) " d="M 0 0 L -10 20 L -221.76513671875 20 A 10 10 0 0 0 -231.76513671875 30 L -231.76513671875 80 A 10 10 0 0 0 -221.76513671875 90 L 221.76513671875 90 A 10 10 0 0 0 231.76513671875 80 L 231.76513671875 30 A 10 10 0 0 0 221.76513671875 20 L 10 20 Z" fill="rgb(255, 255, 255)" stroke="rgb(0, 0, 0)" stroke-width="3px"/><text class="speech-bubble-content property-key" x="-84.41162109375" y="55" alignment-baseline="central" text-anchor="end" font-size="50px" font-family="&quot;Gill Sans&quot;, &quot;Gill Sans MT&quot;, Calibri, sans-serif" xml:space="preserve">API-1: </text><text class="speech-bubble-content property-value" x="-84.41162109375" y="55" alignment-baseline="central" font-size="50px" font-family="&quot;Gill Sans&quot;, &quot;Gill Sans MT&quot;, Calibri, sans-serif">NetShareEnum</text></g><g class="speech-bubble node-speech-bubble" transform="translate(-1130.571907064739,-1205.4213014664706) "><path class="speech-bubble-outline" transform="scale(1,1) " d="M 0 0 L 20 -10 L 20 -150 A 10 10 0 0 1 30 -160 L 512.568359375 -160 A 10 10 0 0 1 522.568359375 -150 L 522.568359375 150 A 10 10 0 0 1 512.568359375 160 L 30 160 A 10 10 0 0 1 20 150 L 20 10 Z" fill="rgb(255, 255, 255)" stroke="rgb(0, 0, 0)" stroke-width="3px"/><text class="speech-bubble-content property-key" x="167.353515625" y="-125" alignment-baseline="central" text-anchor="end" font-size="50px" font-family="&quot;Gill Sans&quot;, &quot;Gill Sans MT&quot;, Calibri, sans-serif" xml:space="preserve">API-1: </text><text class="speech-bubble-content property-key" x="167.353515625" y="-75" alignment-baseline="central" text-anchor="end" font-size="50px" font-family="&quot;Gill Sans&quot;, &quot;Gill Sans MT&quot;, Calibri, sans-serif" xml:space="preserve">API-2: </text><text class="speech-bubble-content property-key" x="167.353515625" y="-25" alignment-baseline="central" text-anchor="end" font-size="50px" font-family="&quot;Gill Sans&quot;, &quot;Gill Sans MT&quot;, Calibri, sans-serif" xml:space="preserve">API-3: </text><text class="speech-bubble-content property-key" x="167.353515625" y="25" alignment-baseline="central" text-anchor="end" font-size="50px" font-family="&quot;Gill Sans&quot;, &quot;Gill Sans MT&quot;, Calibri, sans-serif" xml:space="preserve">API-4: </text><text class="speech-bubble-content property-key" x="167.353515625" y="75" alignment-baseline="central" text-anchor="end" font-size="50px" font-family="&quot;Gill Sans&quot;, &quot;Gill Sans MT&quot;, Calibri, sans-serif" xml:space="preserve">API-5: </text><text class="speech-bubble-content property-key" x="167.353515625" y="125" alignment-baseline="central" text-anchor="end" font-size="50px" font-family="&quot;Gill Sans&quot;, &quot;Gill Sans MT&quot;, Calibri, sans-serif" xml:space="preserve">API-6: </text><text class="speech-bubble-content property-value" x="167.353515625" y="-125" alignment-baseline="central" font-size="50px" font-family="&quot;Gill Sans&quot;, &quot;Gill Sans MT&quot;, Calibri, sans-serif">NtOpenProcess</text><text class="speech-bubble-content property-value" x="167.353515625" y="-75" alignment-baseline="central" font-size="50px" font-family="&quot;Gill Sans&quot;, &quot;Gill Sans MT&quot;, Calibri, sans-serif">OpenProcess</text><text class="speech-bubble-content property-value" x="167.353515625" y="-25" alignment-baseline="central" font-size="50px" font-family="&quot;Gill Sans&quot;, &quot;Gill Sans MT&quot;, Calibri, sans-serif">OpenSCManager</text><text class="speech-bubble-content property-value" x="167.353515625" y="25" alignment-baseline="central" font-size="50px" font-family="&quot;Gill Sans&quot;, &quot;Gill Sans MT&quot;, Calibri, sans-serif">RegOpenKey</text><text class="speech-bubble-content property-value" x="167.353515625" y="75" alignment-baseline="central" font-size="50px" font-family="&quot;Gill Sans&quot;, &quot;Gill Sans MT&quot;, Calibri, sans-serif">RegOpenKeyEx</text><text class="speech-bubble-content property-value" x="167.353515625" y="125" alignment-baseline="central" font-size="50px" font-family="&quot;Gill Sans&quot;, &quot;Gill Sans MT&quot;, Calibri, sans-serif">ZwOpenKey</text></g><g class="speech-bubble node-speech-bubble" transform="translate(-2731.9280574716804,-1642.4871053232425) "><path class="speech-bubble-outline" transform="scale(-1,-1) " d="M 0 0 L 30 20 L 453.8037109375 20 A 10 10 0 0 1 463.8037109375 30 L 463.8037109375 80 A 10 10 0 0 1 453.8037109375 90 L 30 90 A 10 10 0 0 1 20 80 L 20 30 Z" fill="rgb(255, 255, 255)" stroke="rgb(0, 0, 0)" stroke-width="3px"/><text class="speech-bubble-content property-key" x="-316.4501953125" y="-55" alignment-baseline="central" text-anchor="end" font-size="50px" font-family="&quot;Gill Sans&quot;, &quot;Gill Sans MT&quot;, Calibri, sans-serif" xml:space="preserve">API-1: </text><text class="speech-bubble-content property-value" x="-316.4501953125" y="-55" alignment-baseline="central" font-size="50px" font-family="&quot;Gill Sans&quot;, &quot;Gill Sans MT&quot;, Calibri, sans-serif">CreateService</text></g><g class="speech-bubble node-speech-bubble" transform="translate(-2125.69892578125,-1866.1406688722805) "><path class="speech-bubble-outline" transform="scale(1,-1) " d="M 0 0 L -10 20 L -199.853515625 20 A 10 10 0 0 0 -209.853515625 30 L -209.853515625 80 A 10 10 0 0 0 -199.853515625 90 L 199.853515625 90 A 10 10 0 0 0 209.853515625 80 L 209.853515625 30 A 10 10 0 0 0 199.853515625 20 L 10 20 Z" fill="rgb(255, 255, 255)" stroke="rgb(0, 0, 0)" stroke-width="3px"/><text class="speech-bubble-content property-key" x="-62.5" y="-55" alignment-baseline="central" text-anchor="end" font-size="50px" font-family="&quot;Gill Sans&quot;, &quot;Gill Sans MT&quot;, Calibri, sans-serif" xml:space="preserve">API-1: </text><text class="speech-bubble-content property-value" x="-62.5" y="-55" alignment-baseline="central" font-size="50px" font-family="&quot;Gill Sans&quot;, &quot;Gill Sans MT&quot;, Calibri, sans-serif">NetUserAdd</text></g><g class="speech-bubble node-speech-bubble" transform="translate(-1553.8927703982818,-1634.8880157345206) "><path class="speech-bubble-outline" transform="scale(1,-1) " d="M 0 0 L 30 20 L 417.79296875 20 A 10 10 0 0 1 427.79296875 30 L 427.79296875 80 A 10 10 0 0 1 417.79296875 90 L 30 90 A 10 10 0 0 1 20 80 L 20 30 Z" fill="rgb(255, 255, 255)" stroke="rgb(0, 0, 0)" stroke-width="3px"/><text class="speech-bubble-content property-key" x="167.353515625" y="-55" alignment-baseline="central" text-anchor="end" font-size="50px" font-family="&quot;Gill Sans&quot;, &quot;Gill Sans MT&quot;, Calibri, sans-serif" xml:space="preserve">API-1: </text><text class="speech-bubble-content property-value" x="167.353515625" y="-55" alignment-baseline="central" font-size="50px" font-family="&quot;Gill Sans&quot;, &quot;Gill Sans MT&quot;, Calibri, sans-serif">NetUserDel</text></g><g class="speech-bubble node-speech-bubble" transform="translate(-2804.0094064072746,-163.4590108383385) "><path class="speech-bubble-outline" transform="scale(-1,1) " d="M 0 0 L 30 20 L 512.568359375 20 A 10 10 0 0 1 522.568359375 30 L 522.568359375 80 A 10 10 0 0 1 512.568359375 90 L 30 90 A 10 10 0 0 1 20 80 L 20 30 Z" fill="rgb(255, 255, 255)" stroke="rgb(0, 0, 0)" stroke-width="3px"/><text class="speech-bubble-content property-key" x="-375.21484375" y="55" alignment-baseline="central" text-anchor="end" font-size="50px" font-family="&quot;Gill Sans&quot;, &quot;Gill Sans MT&quot;, Calibri, sans-serif" xml:space="preserve">API-1: </text><text class="speech-bubble-content property-value" x="-375.21484375" y="55" alignment-baseline="central" font-size="50px" font-family="&quot;Gill Sans&quot;, &quot;Gill Sans MT&quot;, Calibri, sans-serif">OpenSCManager</text></g></g><g class="layer overlay"><circle class="node overlay" r="201.91540341098502" stroke="none" fill="rgba(255, 255, 255, 0)" cx="-2125.69892578125" cy="-934.2052469624156"/><circle class="node overlay" r="206.6888142322906" stroke="none" fill="rgba(255, 255, 255, 0)" cx="-1374.1696095254463" cy="-733.4099404752417"/><circle class="node overlay" r="179.80339887498948" stroke="none" fill="rgba(255, 255, 255, 0)" cx="-1629.1299186374836" cy="-317.95171314405263"/><circle class="node overlay" r="179.80339887498948" stroke="none" fill="rgba(255, 255, 255, 0)" cx="-2940.775503398507" cy="-1165.881033395408"/><circle class="node overlay" r="210.7945938079714" stroke="none" fill="rgba(255, 255, 255, 0)" cx="-2940.775503398507" cy="-700.2360235230813"/><circle class="node overlay" r="194.39353203340409" stroke="none" fill="rgba(255, 255, 255, 0)" cx="-2125.69892578125" cy="-207.58667087416663"/><circle class="node overlay" r="200.56479746142216" stroke="none" fill="rgba(255, 255, 255, 0)" cx="-1327.136704526161" cy="-1205.4213014664706"/><circle class="node ring" r="206.91540341098502" fill="none" stroke="rgba(255, 255, 255, 0)" stroke-width="10px" cx="-2125.69892578125" cy="-934.2052469624156"/><circle class="node ring" r="211.6888142322906" fill="none" stroke="rgba(255, 255, 255, 0)" stroke-width="10px" cx="-1374.1696095254463" cy="-733.4099404752417"/><circle class="node ring" r="184.80339887498948" fill="none" stroke="rgba(255, 255, 255, 0)" stroke-width="10px" cx="-1629.1299186374836" cy="-317.95171314405263"/><circle class="node ring" r="184.80339887498948" fill="none" stroke="rgba(255, 255, 255, 0)" stroke-width="10px" cx="-2940.775503398507" cy="-1165.881033395408"/><circle class="node ring" r="215.7945938079714" fill="none" stroke="rgba(255, 255, 255, 0)" stroke-width="10px" cx="-2940.775503398507" cy="-700.2360235230813"/><circle class="node ring" r="199.39353203340409" fill="none" stroke="rgba(255, 255, 255, 0)" stroke-width="10px" cx="-2125.69892578125" cy="-207.58667087416663"/><circle class="node ring" r="205.56479746142216" fill="none" stroke="rgba(255, 255, 255, 0)" stroke-width="10px" cx="-1327.136704526161" cy="-1205.4213014664706"/><path class="relationship overlay" fill="rgba(255, 255, 255, 0)" stroke="rgba(255, 255, 255, 0)" stroke-width="10px" transform="translate(-2125.69892578125,-934.2052469624156) rotate(14.958994086661475)" d="M 212.91540341098502 4 L 528.2026102603531 4 L 528.2026102603531 16 L 560.2026102603531 0 L 528.2026102603531 -16 L 528.2026102603531 -4 L 212.91540341098502 -4 Z"/><path class="relationship overlay" fill="rgba(255, 255, 255, 0)" stroke="rgba(255, 255, 255, 0)" stroke-width="10px" transform="translate(-2125.69892578125,-934.2052469624156) rotate(51.13858892111502)" d="M 212.91540341098502 4 L 568.6188631314354 4 L 568.6188631314354 16 L 600.6188631314354 0 L 568.6188631314354 -16 L 568.6188631314354 -4 L 212.91540341098502 -4 Z"/><path class="relationship overlay" fill="rgba(255, 255, 255, 0)" stroke="rgba(255, 255, 255, 0)" stroke-width="10px" transform="translate(-2125.69892578125,-934.2052469624156) rotate(-164.13283246683716)" d="M 212.91540341098502 4 L 624.5592728303468 4 L 624.5592728303468 16 L 656.5592728303468 0 L 624.5592728303468 -16 L 624.5592728303468 -4 L 212.91540341098502 -4 Z"/><path class="relationship overlay" fill="rgba(255, 255, 255, 0)" stroke="rgba(255, 255, 255, 0)" stroke-width="10px" transform="translate(-2125.69892578125,-934.2052469624156) rotate(163.98377732295714)" d="M 212.91540341098502 4 L 594.1979915942038 4 L 594.1979915942038 16 L 626.1979915942038 0 L 594.1979915942038 -16 L 594.1979915942038 -4 L 212.91540341098502 -4 Z"/><path class="relationship overlay" fill="rgba(255, 255, 255, 0)" stroke="rgba(255, 255, 255, 0)" stroke-width="10px" transform="translate(-2125.69892578125,-934.2052469624156) rotate(90)" d="M 212.91540341098502 4 L 489.22504405484483 4 L 489.22504405484483 16 L 521.2250440548448 0 L 489.22504405484483 -16 L 489.22504405484483 -4 L 212.91540341098502 -4 Z"/><path class="relationship overlay" fill="rgba(255, 255, 255, 0)" stroke="rgba(255, 255, 255, 0)" stroke-width="10px" transform="translate(-2125.69892578125,-934.2052469624156) rotate(-18.759051984289094)" d="M 212.91540341098502 4 L 599.7973841880804 4 L 599.7973841880804 16 L 631.7973841880804 0 L 599.7973841880804 -16 L 599.7973841880804 -4 L 212.91540341098502 -4 Z"/><circle class="node overlay" r="190.5501344330481" stroke="none" fill="rgba(255, 255, 255, 0)" cx="-2600.01719238281" cy="-1510.576240234372"/><circle class="node ring" r="195.5501344330481" fill="none" stroke="rgba(255, 255, 255, 0)" stroke-width="10px" cx="-2600.01719238281" cy="-1510.576240234372"/><path class="relationship overlay" fill="rgba(255, 255, 255, 0)" stroke="rgba(255, 255, 255, 0)" stroke-width="10px" transform="translate(-2125.69892578125,-934.2052469624156) rotate(-129.45230243798642)" d="M 212.91540341098502 4 L 512.8956706440588 4 L 512.8956706440588 16 L 544.8956706440588 0 L 512.8956706440588 -16 L 512.8956706440588 -4 L 212.91540341098502 -4 Z"/><circle class="node overlay" r="194.26087150899997" stroke="none" fill="rgba(255, 255, 255, 0)" cx="-2125.69892578125" cy="-1675.8797973632804"/><circle class="node ring" r="199.26087150899997" fill="none" stroke="rgba(255, 255, 255, 0)" stroke-width="10px" cx="-2125.69892578125" cy="-1675.8797973632804"/><path class="relationship overlay" fill="rgba(255, 255, 255, 0)" stroke="rgba(255, 255, 255, 0)" stroke-width="10px" transform="translate(-2125.69892578125,-934.2052469624156) rotate(-90)" d="M 212.91540341098502 4 L 504.41367889186495 4 L 504.41367889186495 16 L 536.413678891865 0 L 504.41367889186495 -16 L 504.41367889186495 -4 L 212.91540341098502 -4 Z"/><circle class="node overlay" r="179.80339887498948" stroke="none" fill="rgba(255, 255, 255, 0)" cx="-1678.2045458984303" cy="-1510.576240234372"/><circle class="node ring" r="184.80339887498948" fill="none" stroke="rgba(255, 255, 255, 0)" stroke-width="10px" cx="-1678.2045458984303" cy="-1510.576240234372"/><path class="relationship overlay" fill="rgba(255, 255, 255, 0)" stroke="rgba(255, 255, 255, 0)" stroke-width="10px" transform="translate(-2125.69892578125,-934.2052469624156) rotate(-52.17423910049978)" d="M 212.91540341098502 4 L 506.89156610148007 4 L 506.89156610148007 16 L 538.8915661014801 0 L 506.89156610148007 -16 L 506.89156610148007 -4 L 212.91540341098502 -4 Z"/><circle class="node overlay" r="222.48567488841007" stroke="none" fill="rgba(255, 255, 255, 0)" cx="-2649.5167041015607" cy="-317.95171314405263"/><circle class="node ring" r="227.48567488841007" fill="none" stroke="rgba(255, 255, 255, 0)" stroke-width="10px" cx="-2649.5167041015607" cy="-317.95171314405263"/><path class="relationship overlay" fill="rgba(255, 255, 255, 0)" stroke="rgba(255, 255, 255, 0)" stroke-width="10px" transform="translate(-2125.69892578125,-934.2052469624156) rotate(130.36465934624567)" d="M 212.91540341098502 4 L 543.311878784971 4 L 543.311878784971 16 L 575.311878784971 0 L 543.311878784971 -16 L 543.311878784971 -4 L 212.91540341098502 -4 Z"/></g></svg>